# xmcd
#
# Track frame offsets:
# 150
# 9809
# 19508
# 31113
# 44739
# 59665
# 73355
# 84336
# 105877
# 118429
# 133252
# 148226
# 159784
# 173002
# 182172
# 193370
#
# Disc length: 2741 seconds
#
#
# Revision: 0
# Processed by: cddbd v1.5.1PL2 Copyright (c) Steve Scherf et al.
# Submitted via: FreeRIP 2.944 
#
DISCID=e00ab310
DTITLE=Thys die bosveldklong - korrektiewe afrikaans
DYEAR=1900
DGENRE=afrikaans
TTITLE0=boude wyn
TTITLE1=mampara
TTITLE2=double clutch tollie
TTITLE3=4 x 4
TTITLE4=lambertsbaai
TTITLE5=tronksel rock
TTITLE6=dinge van die binnekringe
TTITLE7=fanagalo medley
TTITLE8=vetste fiete van boomstraat
TTITLE9=vet let
TTITLE10=sus genis
TTITLE11=gatiep and meraai
TTITLE12=pawnshop blues
TTITLE13=jannie van moorreesburg
TTITLE14=pappa-pappegaai
TTITLE15=bosveld nooientjie
EXTD=
EXTT0=
EXTT1=
EXTT2=
EXTT3=
EXTT4=
EXTT5=
EXTT6=
EXTT7=
EXTT8=
EXTT9=
EXTT10=
EXTT11=
EXTT12=
EXTT13=
EXTT14=
EXTT15=
PLAYORDER=
